<svg version="1.2" xmlns="http://www.w3.org/2000/svg" viewBox="0 0 500 250" width="500" height="250">
	<title>I Saw The Sign</title>
	<style>
		.s0 { fill: #000000 } 
	</style>
	<path id="asasfasf" class="s0" aria-label="Crypto checker"  d="m65.1 101.4h-1.1c-8.9 0-16.4 6.2-16.4 16.3v5.5c0 10.6 7.4 16.3 16.7 16.3h1.1c8.5 0 15-5.6 15-15.4h-8.8c0 5.7-2 7.9-6.9 7.9-3.9 0-6.6-2.6-6.6-7v-9.1c0-4.4 2.7-7 6.6-7 4.3 0 6.5 2.4 6.5 8h9.2c0-10.4-6.7-15.5-15.3-15.5zm35.9 9.5c-4.9 0-7.2 3.9-7.6 4.6l-1-4.1h-6.9v27.6h9.1v-17.4c0-2.4 1.1-4 3.1-4 2.2 0 3.1 1.7 3.1 3.5v1.2h7.6c0.2-1 0.2-2.1 0.2-3 0-5.2-2.4-8.4-7.6-8.4zm18.1 0.5h-9.8l10.3 27c-0.7 2.3-1.8 4.4-4.6 4.4-1.4 0-3-0.4-3.8-0.7v6.2c1.2 0.5 2.9 0.8 4.9 0.8 6.3 0 10.4-5.1 12.8-11.8l9.6-25.9h-9.1l-4.7 15.9h-0.4zm38.3-0.6c-3.5 0-5.8 1.8-7.4 3.9l-0.9-3.3h-7.3v37.3h9.2v-12.7c1.2 1.8 3.7 3.5 7.4 3.5 5.9 0 10.6-4.6 10.6-13.9v-0.6c0-9.6-5.2-14.2-11.6-14.2zm-2.1 6c2.4 0 4.3 1.9 4.3 5.2v6.1c0 3.3-1.9 5.2-4.3 5.2-2.4 0-4.3-1.9-4.3-5.2v-6.1c0-3.3 1.9-5.2 4.3-5.2zm23.4-14.2l-3.2 8.8h-3.4v6.5h3v13.9c0 5.8 3.6 7.7 9.2 7.7 1.7 0 4.9-0.4 6.5-1.1v-5.5c-0.9 0.4-2.6 0.7-3.4 0.7-1.5 0-3-0.6-3-3.8v-11.9h6.4v-6.5h-6.4v-8.8zm29.2 36.9h1.3c7.9 0 13.8-5.2 13.8-13.6v-1.4c0-8.4-5.9-13.7-13.8-13.7h-1.3c-7.9 0-13.9 5.3-13.9 13.7v1.4c0 8.3 6 13.6 13.9 13.6zm0.6-5.9c-2.7 0-4.8-2-4.8-5.4v-6.1c0-3.4 2.1-5.3 4.8-5.3 2.8 0 4.9 1.9 4.9 5.3v6.1c0 3.4-2.1 5.4-4.9 5.4zm44-22.8h-1.2c-7.4 0-13.3 5.5-13.3 13.4v1.9c0 8 5.7 13.4 13.4 13.4h1.2c7 0 12.4-3.8 12.4-11.6h-8c0 4.1-1.6 5.7-4.8 5.7-3 0-4.5-2.3-4.5-5.2v-6.3c0-2.9 1.7-5.3 4.5-5.3 3 0 4.3 2.2 4.3 5.7h8.5c0-7.1-5.2-11.7-12.5-11.7zm34.4 0c-3.5 0-5.8 1.4-7.7 3.6v-14.3h-9.3v38.9h9.3v-17.1c0-2.5 1.8-4.4 4-4.4 2.1 0 3.6 1.8 3.6 4v17.5h9.3v-19.7c0-5.2-3.9-8.5-9.2-8.5zm29.3 0h-1.1c-8.1 0-14.1 5-14.1 13.6v1.6c0 8.6 6.2 13.5 14.3 13.5h0.8c7.4 0 13-4 13-10.8h-8.7c0 3.1-1.8 4.9-4.8 4.9-3.7 0-5-2.7-5-7h18.5v-3.8c0-7.3-5.4-12-12.9-12zm-0.9 6c3.1 0 4.6 2 4.6 5.3h-9.3c0.2-3.2 1.9-5.3 4.7-5.3zm32.2-6h-1.2c-7.5 0-13.4 5.5-13.4 13.4v1.9c0 8 5.8 13.4 13.4 13.4h1.2c7 0 12.4-3.8 12.4-11.6h-8c0 4.1-1.6 5.7-4.8 5.7-3 0-4.5-2.3-4.5-5.2v-6.3c0-2.9 1.7-5.3 4.5-5.3 3 0 4.4 2.2 4.4 5.7h8.4c0-7.1-5.2-11.7-12.4-11.7zm26.6-10.7h-9.2v38.9h9.2v-6.1l2.5-2.3 5.7 8.4h11l-10.2-14.9 9.9-12.7h-10.5l-8.4 11.6zm36.2 10.7h-1.2c-8 0-14.1 5-14.1 13.6v1.6c0 8.6 6.2 13.5 14.3 13.5h0.9c7.4 0 12.9-4 12.9-10.8h-8.7c0 3.1-1.7 4.9-4.8 4.9-3.6 0-4.9-2.7-4.9-7h18.5v-3.8c0-7.3-5.4-12-12.9-12zm-0.9 6c3.1 0 4.5 2 4.5 5.3h-9.2c0.2-3.2 1.9-5.3 4.7-5.3zm34.3-6c-4.8 0-7.2 3.9-7.5 4.6l-1-4h-7v27.6h9.1v-17.4c0-2.4 1.1-4 3.2-4 2.2 0 3 1.7 3 3.4v1.3h7.6c0.2-1 0.3-2.1 0.3-3 0-5.2-2.5-8.5-7.7-8.5z"/>
</svg>