<svg version="1.2" xmlns="http://www.w3.org/2000/svg" viewBox="0 0 500 250" width="500" height="250"><style></style><path  d="m57.2 138.7v8.1q-2.8 1.5-5.9 2.2-3 0.8-6.3 0.8-9.8 0-15.6-5.5-5.7-5.5-5.7-14.9 0-9.5 5.7-15 5.8-5.5 15.6-5.5 3.3 0 6.3 0.8 3.1 0.7 5.9 2.1v8.2q-2.8-1.9-5.6-2.8-2.7-0.9-5.8-0.9-5.4 0-8.5 3.5-3.1 3.4-3.1 9.6 0 6 3.1 9.5 3.1 3.5 8.5 3.5 3.1 0 5.8-0.9 2.8-0.9 5.6-2.8zm29.9-19.7v8.5q-1.2-0.6-2.5-0.8-1.2-0.3-2.4-0.3-3.7 0-5.6 2.3-2 2.3-2 6.7v13.6h-9.4v-29.5h9.4v4.8q1.8-2.9 4.2-4.2 2.3-1.3 5.6-1.3 0.5 0 1.1 0 0.5 0 1.6 0.2zm14 31.1l-13.2-30.6h9.5l7.9 20 6.7-20h9.5l-12.4 32.3q-1.9 4.9-4.4 6.9-2.5 2-6.6 2h-5.4v-6.2h2.9q2.4 0 3.5-0.8 1.1-0.8 1.7-2.7zm35.4-5.5v15.5h-9.5v-40.7h9.5v4.3q1.9-2.6 4.3-3.8 2.4-1.2 5.5-1.2 5.4 0 8.9 4.3 3.5 4.3 3.5 11.2 0 6.8-3.5 11.2-3.5 4.3-8.9 4.3-3.1 0-5.5-1.2-2.4-1.3-4.3-3.9zm6.2-19.1q-3 0-4.6 2.3-1.6 2.2-1.6 6.4 0 4.2 1.6 6.4 1.6 2.2 4.6 2.2 3.1 0 4.7-2.2 1.6-2.2 1.6-6.4 0-4.2-1.6-6.5-1.6-2.2-4.7-2.2zm23.9-14.5h9.4v8.4h9.7v6.7h-9.7v12.6q0 2 0.8 2.8 0.8 0.7 3.3 0.7h4.8v6.7h-8.1q-5.6 0-7.9-2.3-2.3-2.3-2.3-7.9v-12.6h-4.7v-6.7h4.7zm39 14.4q-3.2 0-4.8 2.3-1.7 2.2-1.7 6.5 0 4.2 1.7 6.5 1.6 2.2 4.8 2.2 3 0 4.7-2.2 1.6-2.3 1.6-6.5 0-4.3-1.6-6.5-1.7-2.3-4.7-2.3zm0-6.7q7.6 0 11.8 4.1 4.3 4.1 4.3 11.4 0 7.2-4.3 11.4-4.2 4.1-11.8 4.1-7.7 0-12-4.1-4.3-4.2-4.3-11.4 0-7.3 4.3-11.4 4.3-4.1 12-4.1zm65.7 1.6v7.7q-2-1.3-3.9-2-1.9-0.6-4-0.6-4 0-6.2 2.3-2.2 2.3-2.2 6.5 0 4.1 2.2 6.4 2.2 2.3 6.2 2.3 2.2 0 4.2-0.6 2-0.7 3.7-2v7.7q-2.3 0.8-4.5 1.3-2.3 0.4-4.6 0.4-8 0-12.5-4.1-4.5-4.1-4.5-11.4 0-7.3 4.5-11.4 4.5-4.1 12.5-4.1 2.3 0 4.6 0.4 2.2 0.4 4.5 1.2zm37.8 10.6v18h-9.5v-2.9-10.8q0-3.9-0.2-5.3-0.1-1.5-0.6-2.2-0.5-0.9-1.5-1.4-0.9-0.5-2.1-0.5-3 0-4.7 2.3-1.7 2.2-1.7 6.3v14.5h-9.4v-41h9.4v15.8q2.2-2.6 4.6-3.8 2.4-1.2 5.3-1.2 5.1 0 7.7 3.1 2.7 3.1 2.7 9.1zm38.2 3.2v2.6h-22q0.3 3.4 2.4 5 2 1.7 5.7 1.7 3 0 6.1-0.9 3.1-0.9 6.4-2.7v7.3q-3.3 1.3-6.7 1.9-3.3 0.7-6.7 0.7-8 0-12.4-4.1-4.5-4.1-4.5-11.4 0-7.3 4.4-11.4 4.4-4.1 12-4.1 7 0 11.1 4.2 4.2 4.1 4.2 11.2zm-21.9-3.2h12.2q0-2.7-1.6-4.3-1.5-1.7-4-1.7-2.8 0-4.5 1.6-1.7 1.5-2.1 4.4zm52.9-10.6v7.7q-1.9-1.3-3.8-2-2-0.6-4-0.6-4 0-6.2 2.3-2.2 2.3-2.2 6.5 0 4.1 2.2 6.4 2.2 2.3 6.2 2.3 2.2 0 4.1-0.6 2.1-0.7 3.7-2v7.7q-2.2 0.8-4.5 1.3-2.2 0.4-4.5 0.4-8 0-12.5-4.1-4.5-4.1-4.5-11.4 0-7.3 4.5-11.4 4.5-4.1 12.5-4.1 2.3 0 4.5 0.4 2.3 0.4 4.5 1.2zm8.2 28.6v-41h9.4v22.3l10.9-10.8h11l-14.5 13.5 15.6 16h-11.5l-11.5-12.3v12.3zm64-14.8v2.6h-22.1q0.3 3.4 2.4 5 2.1 1.7 5.7 1.7 3 0 6.1-0.9 3.2-0.9 6.5-2.7v7.3q-3.4 1.3-6.7 1.9-3.4 0.7-6.7 0.7-8 0-12.5-4.1-4.4-4.1-4.4-11.4 0-7.3 4.3-11.4 4.4-4.1 12-4.1 7 0 11.2 4.2 4.2 4.1 4.2 11.2zm-22-3.2h12.3q0-2.7-1.6-4.3-1.6-1.7-4.1-1.7-2.7 0-4.5 1.6-1.7 1.5-2.1 4.4zm51-12v8.5q-1.2-0.6-2.4-0.8-1.2-0.3-2.5-0.3-3.6 0-5.6 2.3-1.9 2.3-1.9 6.7v13.6h-9.5v-29.5h9.5v4.8q1.8-2.9 4.1-4.2 2.4-1.3 5.7-1.3 0.5 0 1 0 0.6 0 1.6 0.2zm-263.6 48.3l-3.7-8.5h2.7l2.2 5.6 1.8-5.6h2.7l-3.5 9q-0.5 1.3-1.2 1.9-0.7 0.5-1.8 0.5h-1.5v-1.7h0.8q0.6 0 0.9-0.2 0.3-0.2 0.5-0.8zm8.1-3.8v-1.6h1.2q1 0 1.4-0.2 0.4-0.3 0.4-0.6 0-0.7-1.7-0.7-1.4 0-2.3 0.5v-1.9q1.3-0.4 2.9-0.4 1.8 0 2.7 0.6 0.8 0.5 0.8 1.6 0 1.4-1.6 1.8 1.8 0.5 1.8 2.1 0 1.3-1 1.9-1 0.6-3.1 0.6-1.6 0-2.9-0.4v-2q1.6 0.7 2.6 0.7 1.1 0 1.5-0.3 0.5-0.3 0.5-0.6 0-1.1-2.1-1.1zm7.9 3.5v-8.2h2.6v3.1h2.6v-3.1h2.6v8.2h-2.6v-3.4h-2.6v3.4zm15.4-3.7h-1.3q-0.9 0-1.3 0.3-0.4 0.3-0.4 0.8 0 0.5 0.3 0.8 0.4 0.3 1 0.3 0.7 0 1.2-0.5 0.5-0.6 0.5-1.4zm2.7-1v4.7h-2.7v-1.2q-0.5 0.8-1.2 1.1-0.6 0.3-1.6 0.3-1.3 0-2.1-0.7-0.7-0.7-0.7-1.9 0-1.5 0.9-2.1 1-0.7 3.2-0.7h1.5v-0.2q0-0.6-0.5-0.9-0.5-0.3-1.5-0.3-0.9 0-1.6 0.1-0.7 0.2-1.3 0.5v-2q0.8-0.2 1.7-0.3 0.8-0.1 1.7-0.1 2.2 0 3.2 0.9 1 0.9 1 2.8zm7.7-3.5h2.7v8.2h-2.6v-4.3l-2.7 4.3h-2.7v-8.2h2.6v4.4zm-3.7-3.3h1q0.1 0.5 0.5 0.8 0.3 0.3 1 0.3 0.6 0 0.9-0.3 0.4-0.3 0.5-0.8h1q0 1.1-0.7 1.6-0.6 0.6-1.7 0.6-1.2 0-1.8-0.6-0.7-0.5-0.7-1.6zm13.7 6.9v-1.2q-0.1-0.5-0.1-1 0-1.4 0.4-2.3 0.8-1.8 1.8-2.1 0.9-0.3 4.5-0.6 0.4 0 0.8-0.1l0.6 1.6q-0.6 0.2-3.5 0.4-1.2 0.1-1.7 0.5-0.9 0.6-0.9 1.7 1-0.7 2.7-0.7 2.1 0 3.3 1.1 1.2 1.2 1.2 3.2 0 2-1.2 3.2-1.2 1.1-3.3 1.1-2.2 0-3.4-1.1-1.2-1.2-1.2-3.2 0-0.3 0-0.5zm4.5-1.9q-0.8 0-1.3 0.6-0.4 0.6-0.4 1.8 0 1.2 0.4 1.8 0.5 0.6 1.3 0.6 0.9 0 1.4-0.6 0.4-0.6 0.4-1.8 0-1.2-0.4-1.8-0.5-0.6-1.4-0.6zm10.4 0q-0.9 0-1.4 0.6-0.4 0.6-0.4 1.8 0 1.2 0.4 1.8 0.5 0.6 1.4 0.6 0.8 0 1.3-0.6 0.4-0.6 0.4-1.8 0-1.2-0.4-1.8-0.5-0.6-1.3-0.6zm0-1.9q2.1 0 3.3 1.1 1.2 1.2 1.2 3.2 0 2-1.2 3.2-1.2 1.1-3.3 1.1-2.2 0-3.4-1.1-1.2-1.2-1.2-3.2 0-2 1.2-3.2 1.2-1.1 3.4-1.1zm5.9 8.4v-1.9q1.3-0.2 1.6-1.1 0.2-0.7 0.2-3.9v-1.3h7.1v8.2h-2.6v-6.3h-1.8v0.2q0 3.3-0.5 4.2-1.1 1.9-4 1.9zm16.6-2.6q0-0.4-0.3-0.7-0.3-0.2-0.9-0.2h-1.3v1.9h1.3q0.6 0 0.9-0.3 0.3-0.2 0.3-0.7zm-5.2 2.6v-8.2h2.7v3.1h1.5q1.6 0 2.5 0.6 0.9 0.6 0.9 2 0 1.3-0.9 1.9-0.9 0.6-2.5 0.6zm17.4-8.2v6.3h2.7v-6.3h2.7v8.2h-13.4v-8.2h2.7v6.3h2.7v-6.3zm16.1 4.1v0.7h-6.1q0.1 0.9 0.7 1.4 0.5 0.5 1.6 0.5 0.8 0 1.7-0.3 0.8-0.2 1.8-0.7v2q-1 0.3-1.9 0.5-0.9 0.2-1.9 0.2-2.2 0-3.4-1.1-1.3-1.2-1.3-3.2 0-2 1.2-3.2 1.3-1.1 3.4-1.1 1.9 0 3.1 1.2 1.1 1.1 1.1 3.1zm-6.1-0.9h3.4q0-0.7-0.4-1.2-0.4-0.5-1.1-0.5-0.8 0-1.3 0.5-0.4 0.4-0.6 1.2zm17.3-1.5q-0.9 0-1.4 0.6-0.4 0.6-0.4 1.8 0 1.2 0.4 1.8 0.5 0.6 1.4 0.6 0.8 0 1.3-0.6 0.4-0.6 0.4-1.8 0-1.2-0.4-1.8-0.5-0.6-1.3-0.6zm0-1.9q2.1 0 3.3 1.1 1.1 1.2 1.1 3.2 0 2-1.1 3.2-1.2 1.1-3.3 1.1-2.2 0-3.4-1.1-1.2-1.2-1.2-3.2 0-2 1.2-3.2 1.2-1.1 3.4-1.1zm11.6 8.4v-8.2h2.6v2.8l2.9-2.8h2.9l-3.5 3.3 3.8 4.9h-2.7l-2.7-3.4-0.7 0.7v2.7zm12.8-1.2v4.3h-2.6v-11.3h2.6v1.2q0.5-0.7 1.2-1.1 0.7-0.3 1.5-0.3 1.5 0 2.5 1.2 1 1.2 1 3.1 0 1.9-1 3.1-1 1.2-2.5 1.2-0.8 0-1.5-0.3-0.7-0.4-1.2-1.1zm1.7-5.3q-0.8 0-1.3 0.6-0.4 0.6-0.4 1.8 0 1.2 0.4 1.8 0.5 0.6 1.3 0.6 0.9 0 1.3-0.6 0.5-0.6 0.5-1.8 0-1.2-0.5-1.8-0.4-0.6-1.3-0.6zm11.7-1.7h2.7v8.2h-2.6v-4.4l-2.7 4.4h-2.7v-8.2h2.6v4.4zm5.3 0h7.8v8.2h-2.6v-6.4h-2.6v6.4h-2.6zm9.1 1.6v-1.6h8.6v1.6h-3v6.6h-2.6v-6.6zm13.8 0q-0.8 0-1.3 0.7-0.5 0.6-0.5 1.8 0 1.1 0.5 1.8 0.5 0.6 1.3 0.6 0.9 0 1.3-0.6 0.5-0.7 0.5-1.8 0-1.2-0.5-1.8-0.4-0.7-1.3-0.7zm0-1.8q2.1 0 3.3 1.1 1.2 1.1 1.2 3.2 0 2-1.2 3.1-1.2 1.2-3.3 1.2-2.1 0-3.3-1.2-1.2-1.1-1.2-3.1 0-2.1 1.2-3.2 1.2-1.1 3.3-1.1zm9 3.3h1.3q0.4 0 0.7-0.2 0.2-0.2 0.2-0.6 0-0.4-0.2-0.5-0.3-0.2-0.7-0.2h-1.3zm0 3.5h1.4q0.6 0 0.8-0.3 0.3-0.2 0.3-0.7 0-0.4-0.3-0.7-0.2-0.2-0.8-0.2h-1.4zm-2.6 1.7v-8.2h3.8q1.8 0 2.6 0.5 0.8 0.5 0.8 1.6 0 0.6-0.3 1.1-0.3 0.4-0.8 0.6 0.7 0.2 1.1 0.7 0.4 0.5 0.4 1.3 0 1.2-0.9 1.8-0.8 0.6-2.6 0.6zm14.6-3.7h-1.4q-0.8 0-1.2 0.2-0.4 0.3-0.4 0.9 0 0.5 0.3 0.8 0.3 0.2 0.9 0.2 0.8 0 1.3-0.5 0.5-0.5 0.5-1.3zm2.6-1v4.7h-2.6v-1.3q-0.6 0.8-1.2 1.1-0.7 0.4-1.6 0.4-1.3 0-2.1-0.8-0.8-0.7-0.8-1.9 0-1.4 1-2.1 1-0.7 3.1-0.7h1.6v-0.2q0-0.6-0.5-0.9-0.5-0.3-1.6-0.3-0.8 0-1.5 0.2-0.7 0.1-1.4 0.5v-2q0.9-0.2 1.7-0.3 0.9-0.1 1.7-0.1 2.2 0 3.2 0.8 1 0.9 1 2.9zm2 4.7v-1.9q1.3-0.3 1.6-1.1 0.2-0.7 0.2-3.9v-1.3h7.1v8.2h-2.6v-6.4h-1.8v0.3q0 3.2-0.6 4.2-1 1.9-3.9 1.9zm11.4 0v-8.2h2.7v3.2h1q0.2-1.4 1.3-2.4 1.1-1 3.2-1 2.1 0 3.3 1.1 1.2 1.1 1.2 3.2 0 2-1.2 3.1-1.2 1.2-3.3 1.2-2.1 0-3.2-1.1-1.1-1-1.3-2.4h-1v3.3zm8.1-6.6q-0.8 0-1.3 0.7-0.5 0.6-0.5 1.8 0 1.1 0.5 1.8 0.5 0.6 1.3 0.6 0.9 0 1.3-0.6 0.5-0.7 0.5-1.8 0-1.2-0.5-1.8-0.4-0.7-1.3-0.7zm5.2 0v-1.6h8.6v1.6h-3v6.6h-2.6v-6.6zm18.1 2.4v0.8h-6.1q0.1 0.9 0.6 1.4 0.6 0.4 1.6 0.4 0.9 0 1.7-0.2 0.9-0.3 1.8-0.8v2.1q-0.9 0.3-1.8 0.5-1 0.2-1.9 0.2-2.2 0-3.5-1.2-1.2-1.1-1.2-3.1 0-2 1.2-3.2 1.2-1.1 3.4-1.1 1.9 0 3 1.1 1.2 1.2 1.2 3.1zm-6.1-0.8h3.4q0-0.8-0.4-1.2-0.5-0.5-1.2-0.5-0.7 0-1.2 0.4-0.5 0.5-0.6 1.3z"/></svg>